<svg width="25" height="31" viewBox="0 0 25 31" fill="none" xmlns="http://www.w3.org/2000/svg">
<path d="M23.0556 30.1226L14.3056 19.5797C13.6111 20.2491 12.8125 20.779 11.9097 21.1695C11.0069 21.56 10.0463 21.7552 9.02778 21.7552C6.50463 21.7552 4.36944 20.7021 2.62222 18.5957C0.875 16.4893 0.000925926 13.9167 0 10.8776C0 7.83746 0.874074 5.26477 2.62222 3.15953C4.37037 1.05429 6.50556 0.00111565 9.02778 0C11.5509 0 13.6866 1.05318 15.4347 3.15953C17.1829 5.26588 18.0565 7.83858 18.0556 10.8776C18.0556 12.1048 17.8935 13.2623 17.5694 14.3501C17.2454 15.4378 16.8056 16.4001 16.25 17.2368L25 27.7798L23.0556 30.1226ZM9.02778 18.4083C10.7639 18.4083 12.2398 17.6764 13.4556 16.2127C14.6713 14.7489 15.2787 12.9706 15.2778 10.8776C15.2778 8.78577 14.6704 7.00797 13.4556 5.54424C12.2407 4.0805 10.7648 3.34807 9.02778 3.34696C7.29167 3.34696 5.8162 4.07938 4.60139 5.54424C3.38657 7.00909 2.7787 8.78688 2.77778 10.8776C2.77778 12.9695 3.38565 14.7478 4.60139 16.2127C5.81713 17.6775 7.29259 18.4094 9.02778 18.4083Z" fill="black"/>
</svg>
