<svg xmlns="http://www.w3.org/2000/svg" version="1.1" xmlns:xlink="http://www.w3.org/1999/xlink" xmlns:svgjs="http://svgjs.dev/svgjs" width="1500" height="1500" viewBox="0 0 1500 1500"><rect width="1500" height="1500" fill="#ffffff"></rect><g transform="matrix(0.6666666666666666,0,0,0.6666666666666666,249.39393939393938,438.5856950067477)"><svg viewBox="0 0 396 247" data-background-color="#ffffff" preserveAspectRatio="xMidYMid meet" height="935" width="1500" xmlns="http://www.w3.org/2000/svg" xmlns:xlink="http://www.w3.org/1999/xlink"><g id="tight-bounds" transform="matrix(1,0,0,1,0.2400000000000091,-0.09999999999999432)"><svg viewBox="0 0 395.52 247.2" height="247.2" width="395.52"><g><svg></svg></g><g><svg viewBox="0 0 395.52 247.2" height="247.2" width="395.52"><mask id="a4680879-2f37-4cc8-b704-be391cad12a0"><rect width="640" height="400" fill="white"></rect><g transform="matrix(1,0,0,1,118.65599999999999,111.60805401842184)"><svg viewBox="0 0 158.208 23.9838919631563" height="23.9838919631563" width="158.208"><g><svg viewBox="0 0 158.208 23.9838919631563" height="23.9838919631563" width="158.208"><g><svg viewBox="0 0 158.208 23.9838919631563" height="23.9838919631563" width="158.208"><g><svg viewBox="0 0 158.208 23.9838919631563" height="23.9838919631563" width="158.208"><g id="SvgjsG2843"><svg viewBox="0 0 158.208 23.9838919631563" height="23.9838919631563" width="158.208" id="SvgjsSvg2842"><g><svg viewBox="0 0 158.208 23.9838919631563" height="23.9838919631563" width="158.208"><g transform="matrix(1,0,0,1,0,0)"><svg width="158.208" viewBox="-1.54 -38.94 275.05 42.55" height="23.9838919631563" data-palette-color="#111111"><path d="M9.18-2.27L9.18-2.27Q8.13-4.25 7.03-7.29 5.93-10.33 4.93-13.82 3.93-17.31 3.15-20.72 2.37-24.12 1.92-26.9 1.46-29.69 1.46-31.25L1.46-31.25Q1.46-31.88 1.73-32.25L1.73-32.25Q2.29-33.03 3.11-33.87 3.93-34.72 5.05-35.64L5.05-35.64Q5.42-35.94 5.74-35.94L5.74-35.94Q6.05-35.94 6.37-35.64L6.37-35.64Q7.52-34.72 8.33-33.87 9.13-33.03 9.69-32.25L9.69-32.25Q9.96-31.88 9.96-31.18L9.96-31.18 9.96-31.27Q9.96-29.66 10.39-26.92 10.82-24.17 11.51-20.91 12.21-17.65 13.02-14.49 13.84-11.33 14.65-8.86L14.65-8.86 14.79-8.86Q16.11-12.13 17.26-15.97 18.41-19.8 19.41-23.8 20.41-27.81 21.29-31.59L21.29-31.59Q21.56-32.69 22.2-33.12 22.85-33.54 24.24-33.54L24.24-33.54 27.17-33.54Q28.42-33.54 29.03-33.18 29.64-32.81 29.91-31.59L29.91-31.59Q30.54-28.76 31.35-25.61 32.15-22.46 33.02-19.35 33.89-16.24 34.78-13.53 35.67-10.82 36.47-8.86L36.47-8.86 36.62-8.86Q37.65-11.18 38.46-14.33 39.28-17.48 39.86-20.76 40.43-24.05 40.73-26.86 41.04-29.66 41.04-31.27L41.04-31.27 41.04-31.18Q41.04-31.88 41.28-32.25L41.28-32.25Q42.46-33.86 44.51-35.64L44.51-35.64Q44.9-35.94 45.19-35.94L45.19-35.94Q45.46-35.94 45.83-35.64L45.83-35.64Q46.92-34.72 47.71-33.87 48.49-33.03 49.05-32.25L49.05-32.25Q49.29-31.86 49.29-31.2L49.29-31.2Q49.29-29.15 48.83-26.27 48.36-23.39 47.57-20.13 46.78-16.87 45.79-13.62 44.8-10.38 43.71-7.56 42.63-4.74 41.58-2.78L41.58-2.78Q40.7-1.15 40-0.57 39.31 0 38.01 0L38.01 0 35.01 0Q33.91 0 33.17-0.49 32.42-0.98 31.62-2.32L31.62-2.32Q31.01-3.34 30.21-5.2 29.42-7.06 28.63-9.24 27.83-11.43 27.2-13.48 26.56-15.53 26.27-16.94L26.27-16.94Q25.93-18.55 25.7-20.06 25.46-21.56 25.42-22.41L25.42-22.41 25.22-22.41Q25.17-21.56 24.91-20.06 24.66-18.55 24.29-16.94L24.29-16.94Q23.93-15.33 23.32-13.26 22.71-11.18 21.97-9.08 21.24-6.98 20.51-5.2 19.78-3.42 19.14-2.37L19.14-2.37Q18.43-1.17 17.59-0.59 16.75 0 15.26 0L15.26 0 12.5 0Q11.21 0 10.55-0.46 9.89-0.93 9.18-2.27ZM49.29-31.27L49.29-31.27 49.29-31.18 49.29-31.2Q49.29-31.25 49.29-31.27ZM1.46-31.18L1.46-31.27 1.46-31.25 1.46-31.18ZM69.68 0.61L69.68 0.61Q64.6 0.61 60.84-1.34 57.08-3.3 55.01-7.23 52.95-11.16 52.95-17.04L52.95-17.04Q52.95-26.39 57.52-30.99 62.08-35.6 70.24-35.6L70.24-35.6Q77.88-35.6 82.32-31.09 86.77-26.59 86.77-17.75L86.77-17.75Q86.77-11.5 84.69-7.43 82.61-3.37 78.78-1.38 74.95 0.61 69.68 0.61ZM69.82-5.98L69.82-5.98Q74.22-5.98 76.34-9.13 78.46-12.28 78.46-17.31L78.46-17.31Q78.46-23.14 76.46-26.07 74.46-29 70.02-29L70.02-29Q61.25-29 61.25-17.46L61.25-17.46Q61.25-12.3 63.36-9.14 65.48-5.98 69.82-5.98ZM100.75-25.93L100.75-1.29Q100.75-0.56 100.45-0.28 100.14 0 99.41 0L99.41 0 94.21 0Q93.48 0 93.17-0.28 92.87-0.56 92.87-1.29L92.87-1.29 92.87-28.47Q92.87-30.91 93.32-32.34 93.77-33.76 95.08-34.39 96.38-35.01 98.9-35.01L98.9-35.01 105.37-35.01Q118.11-35.01 118.11-25.22L118.11-25.22Q118.11-22.24 117.11-20.34 116.11-18.43 114.62-17.37 113.13-16.31 111.69-15.77L111.69-15.77 111.69-15.65Q113.33-14.58 114.8-12.83 116.28-11.08 117.48-9.05 118.67-7.01 119.5-5.02 120.33-3.03 120.65-1.46L120.65-1.46Q120.8-0.73 120.66-0.37 120.53 0 119.82 0L119.82 0 114.18 0Q113.54 0 113.07-0.27 112.59-0.54 112.2-1.51L112.2-1.51Q110.35-6.18 107.93-9.12 105.51-12.06 103.27-13.84L103.27-13.84Q101.83-14.99 101.83-15.48L101.83-15.48Q101.83-15.87 102.29-16.55L102.29-16.55Q102.58-16.97 103.14-17.55 103.71-18.14 104.12-18.43L104.12-18.43Q104.54-18.73 104.79-18.8 105.05-18.87 105.59-18.87L105.59-18.87Q107.39-18.87 108.6-20.12 109.81-21.36 109.81-24.05L109.81-24.05Q109.81-26.59 108.53-27.77 107.25-28.96 105-28.96L105-28.96 103.54-28.96Q101.92-28.96 101.34-28.27 100.75-27.59 100.75-25.93L100.75-25.93ZM143.64 0L131.51 0Q129 0 127.69-0.63 126.38-1.27 125.93-2.71 125.48-4.15 125.48-6.54L125.48-6.54 125.48-31.1Q125.48-31.81 125.72-32.18L125.72-32.18Q126.82-33.79 128.8-35.57L128.8-35.57Q129.17-35.86 129.44-35.86L129.44-35.86Q129.73-35.86 130.05-35.57L130.05-35.57Q131.12-34.64 131.85-33.8 132.59-32.96 133.12-32.18L133.12-32.18Q133.37-31.79 133.37-31.1L133.37-31.1 133.37-9.45Q133.37-7.81 133.95-7.1 134.54-6.4 136.15-6.4L136.15-6.4 143.64-6.42Q144.23-6.42 144.52-6.23L144.52-6.23Q145.16-5.79 145.84-5.18 146.53-4.57 147.28-3.71L147.28-3.71Q147.53-3.39 147.53-3.2L147.53-3.2Q147.53-2.98 147.28-2.71L147.28-2.71Q146.53-1.86 145.84-1.25 145.16-0.63 144.52-0.2L144.52-0.2Q144.18 0 143.64 0L143.64 0ZM158.83-31.1L158.83-1.29Q158.83-0.56 158.52-0.28 158.22 0 157.49 0L157.49 0 152.28 0Q151.55 0 151.25-0.28 150.94-0.56 150.94-1.29L150.94-1.29 150.94-31.1Q150.94-31.81 151.19-32.18L151.19-32.18Q152.28-33.79 154.26-35.57L154.26-35.57Q154.63-35.86 154.9-35.86L154.9-35.86Q155.19-35.86 155.51-35.57L155.51-35.57Q156.58-34.64 157.31-33.8 158.05-32.96 158.58-32.18L158.58-32.18Q158.83-31.79 158.83-31.1L158.83-31.1ZM181.34-5.98L181.34-5.98Q183.12-5.98 184.13-6.35 185.14-6.71 185.71-7.25 186.27-7.79 186.68-8.33L186.68-8.33Q187.07-8.81 187.33-9.06 187.59-9.3 188.05-9.4L188.05-9.4Q188.44-9.52 189.31-9.56 190.17-9.59 191.04-9.59 191.91-9.59 192.25-9.55L192.25-9.55Q192.76-9.52 192.96-9.35L192.96-9.35Q193.15-9.18 193.2-8.62L193.2-8.62Q193.27-7.84 193.29-6.76 193.3-5.69 193.25-4.91L193.25-4.91Q193.22-4.66 193.16-4.49 193.1-4.32 192.91-3.98L192.91-3.98Q192.66-3.59 191.96-2.84 191.25-2.1 189.88-1.31 188.51-0.51 186.35 0.05 184.19 0.61 181.04 0.61L181.04 0.61Q177.67 0.61 174.74-0.26 171.81-1.12 169.6-3.17 167.39-5.22 166.16-8.72 164.93-12.21 164.93-17.43L164.93-17.43Q164.93-23.24 166.94-27.31 168.96-31.37 172.67-33.5 176.38-35.62 181.46-35.62L181.46-35.62Q185.02-35.62 187.18-34.89 189.34-34.16 190.47-33.17 191.59-32.18 192.05-31.45L192.05-31.45Q192.22-31.18 192.3-30.97 192.37-30.76 192.39-30.32L192.39-30.32Q192.47-29.74 192.43-28.61 192.39-27.49 192.25-26.64L192.25-26.64Q192.15-26.1 191.93-25.93L191.93-25.93Q191.83-25.83 191.59-25.76 191.34-25.68 190.86-25.68L190.86-25.68Q190.08-25.68 189.1-25.74 188.12-25.81 187.63-25.88L187.63-25.88Q187.05-25.98 186.78-26.16 186.51-26.34 186.24-26.73L186.24-26.73Q185.8-27.37 184.73-28.2 183.65-29.03 181.19-29.03L181.19-29.03Q177.72-29.03 175.48-26.35 173.23-23.68 173.23-17.7L173.23-17.7Q173.23-11.74 175.59-8.86 177.94-5.98 181.34-5.98ZM206.55-31.1L206.55-1.29Q206.55-0.56 206.25-0.28 205.94 0 205.21 0L205.21 0 200.01 0Q199.28 0 198.97-0.28 198.67-0.56 198.67-1.29L198.67-1.29 198.67-31.1Q198.67-31.81 198.91-32.18L198.91-32.18Q200.01-33.79 201.99-35.57L201.99-35.57Q202.35-35.86 202.62-35.86L202.62-35.86Q202.91-35.86 203.23-35.57L203.23-35.57Q204.31-34.64 205.04-33.8 205.77-32.96 206.31-32.18L206.31-32.18Q206.55-31.79 206.55-31.1L206.55-31.1ZM229.5-28.59L229.5-1.29Q229.5-0.56 229.19-0.28 228.89 0 228.16 0L228.16 0 222.96 0Q222.22 0 221.92-0.28 221.61-0.56 221.61-1.29L221.61-1.29 221.61-28.59 214.34-28.59Q213.75-28.59 213.46-28.78L213.46-28.78Q212.82-29.22 212.15-29.83 211.48-30.44 210.7-31.3L210.7-31.3Q210.46-31.62 210.46-31.81L210.46-31.81Q210.46-32.03 210.7-32.3L210.7-32.3Q211.48-33.15 212.15-33.76 212.82-34.38 213.46-34.81L213.46-34.81Q213.8-35.01 214.34-35.01L214.34-35.01 236.8-35.01Q237.38-35.01 237.68-34.81L237.68-34.81Q238.31-34.38 239-33.76 239.68-33.15 240.44-32.3L240.44-32.3Q240.68-31.98 240.68-31.79L240.68-31.79Q240.68-31.57 240.44-31.3L240.44-31.3Q239.68-30.44 239-29.83 238.31-29.22 237.68-28.78L237.68-28.78Q237.34-28.59 236.8-28.59L236.8-28.59 229.5-28.59ZM260.16-12.45L260.16-1.29Q260.16-0.56 259.86-0.28 259.55 0 258.82 0L258.82 0 253.62 0Q252.89 0 252.58-0.28 252.27-0.56 252.27-1.29L252.27-1.29 252.27-12.3 247.42-17.94Q245.68-19.97 244.5-21.58 243.31-23.19 242.73-24.91 242.14-26.64 242.14-28.96L242.14-28.96 242.14-31.1Q242.14-31.81 242.39-32.18L242.39-32.18Q243.49-33.79 245.46-35.57L245.46-35.57Q245.83-35.86 246.12-35.86L246.12-35.86Q246.42-35.86 246.73-35.57L246.73-35.57Q247.81-34.64 248.54-33.8 249.27-32.96 249.81-32.18L249.81-32.18Q250.05-31.79 250.05-31.1L250.05-31.1 250.05-28.98Q250.05-27.39 250.98-25.46 251.91-23.54 254.11-21.22L254.11-21.22 256.47-18.73 258.79-21.22Q260.77-23.34 261.81-25.27 262.85-27.2 262.85-28.96L262.85-28.96 262.85-31.1Q262.85-31.81 263.09-32.18L263.09-32.18Q264.14-33.76 266.07-35.57L266.07-35.57Q266.44-35.86 266.68-35.86L266.68-35.86Q266.97-35.86 267.29-35.57L267.29-35.57Q268.31-34.64 269.04-33.8 269.76-32.96 270.27-32.18L270.27-32.18Q270.51-31.79 270.51-31.1L270.51-31.1 270.51-28.96Q270.51-26.27 269.34-23.82 268.17-21.36 265.36-18.24L265.36-18.24 260.16-12.45Z" opacity="1" transform="matrix(1,0,0,1,0,0)" fill="black" class="wordmark-text-0" id="SvgjsPath2841" stroke-width="5" stroke="black" stroke-linejoin="round"></path></svg></g></svg></g></svg></g></svg></g><g></g></svg></g></svg></g></svg></g></mask><g transform="matrix(1,0,0,1,118.65599999999999,111.60805401842184)"><svg viewBox="0 0 158.208 23.9838919631563" height="23.9838919631563" width="158.208"><g><svg viewBox="0 0 158.208 23.9838919631563" height="23.9838919631563" width="158.208"><g><svg viewBox="0 0 158.208 23.9838919631563" height="23.9838919631563" width="158.208"><g><svg viewBox="0 0 158.208 23.9838919631563" height="23.9838919631563" width="158.208"><g id="textblocktransform"><svg viewBox="0 0 158.208 23.9838919631563" height="23.9838919631563" width="158.208" id="textblock"><g><svg viewBox="0 0 158.208 23.9838919631563" height="23.9838919631563" width="158.208"><g transform="matrix(1,0,0,1,0,0)"><svg width="158.208" viewBox="-1.54 -38.94 275.05 42.55" height="23.9838919631563" data-palette-color="#111111"><path d="M9.18-2.27L9.18-2.27Q8.13-4.25 7.03-7.29 5.93-10.33 4.93-13.82 3.93-17.31 3.15-20.72 2.37-24.12 1.92-26.9 1.46-29.69 1.46-31.25L1.46-31.25Q1.46-31.88 1.73-32.25L1.73-32.25Q2.29-33.03 3.11-33.87 3.93-34.72 5.05-35.64L5.05-35.64Q5.42-35.94 5.74-35.94L5.74-35.94Q6.05-35.94 6.37-35.64L6.37-35.64Q7.52-34.72 8.33-33.87 9.13-33.03 9.69-32.25L9.69-32.25Q9.96-31.88 9.96-31.18L9.96-31.18 9.96-31.27Q9.96-29.66 10.39-26.92 10.82-24.17 11.51-20.91 12.21-17.65 13.02-14.49 13.84-11.33 14.65-8.86L14.65-8.86 14.79-8.86Q16.11-12.13 17.26-15.97 18.41-19.8 19.41-23.8 20.41-27.81 21.29-31.59L21.29-31.59Q21.56-32.69 22.2-33.12 22.85-33.54 24.24-33.54L24.24-33.54 27.17-33.54Q28.42-33.54 29.03-33.18 29.64-32.81 29.91-31.59L29.91-31.59Q30.54-28.76 31.35-25.61 32.15-22.46 33.02-19.35 33.89-16.24 34.78-13.53 35.67-10.82 36.47-8.86L36.47-8.86 36.62-8.86Q37.65-11.18 38.46-14.33 39.28-17.48 39.86-20.76 40.43-24.05 40.73-26.86 41.04-29.66 41.04-31.27L41.04-31.27 41.04-31.18Q41.04-31.88 41.28-32.25L41.28-32.25Q42.46-33.86 44.51-35.64L44.51-35.64Q44.9-35.94 45.19-35.94L45.19-35.94Q45.46-35.94 45.83-35.64L45.83-35.64Q46.92-34.72 47.71-33.87 48.49-33.03 49.05-32.25L49.05-32.25Q49.29-31.86 49.29-31.2L49.29-31.2Q49.29-29.15 48.83-26.27 48.36-23.39 47.57-20.13 46.78-16.87 45.79-13.62 44.8-10.38 43.71-7.56 42.63-4.74 41.58-2.78L41.58-2.78Q40.7-1.15 40-0.57 39.31 0 38.01 0L38.01 0 35.01 0Q33.91 0 33.17-0.49 32.42-0.98 31.62-2.32L31.62-2.32Q31.01-3.34 30.21-5.2 29.42-7.06 28.63-9.24 27.83-11.43 27.2-13.48 26.56-15.53 26.27-16.94L26.27-16.94Q25.93-18.55 25.7-20.06 25.46-21.56 25.42-22.41L25.42-22.41 25.22-22.41Q25.17-21.56 24.91-20.06 24.66-18.55 24.29-16.94L24.29-16.94Q23.93-15.33 23.32-13.26 22.71-11.18 21.97-9.08 21.24-6.98 20.51-5.2 19.78-3.42 19.14-2.37L19.14-2.37Q18.43-1.17 17.59-0.59 16.75 0 15.26 0L15.26 0 12.5 0Q11.21 0 10.55-0.46 9.89-0.93 9.18-2.27ZM49.29-31.27L49.29-31.27 49.29-31.18 49.29-31.2Q49.29-31.25 49.29-31.27ZM1.46-31.18L1.46-31.27 1.46-31.25 1.46-31.18ZM69.68 0.61L69.68 0.61Q64.6 0.61 60.84-1.34 57.08-3.3 55.01-7.23 52.95-11.16 52.95-17.04L52.95-17.04Q52.95-26.39 57.52-30.99 62.08-35.6 70.24-35.6L70.24-35.6Q77.88-35.6 82.32-31.09 86.77-26.59 86.77-17.75L86.77-17.75Q86.77-11.5 84.69-7.43 82.61-3.37 78.78-1.38 74.95 0.61 69.68 0.61ZM69.82-5.98L69.82-5.98Q74.22-5.98 76.34-9.13 78.46-12.28 78.46-17.31L78.46-17.31Q78.46-23.14 76.46-26.07 74.46-29 70.02-29L70.02-29Q61.25-29 61.25-17.46L61.25-17.46Q61.25-12.3 63.36-9.14 65.48-5.98 69.82-5.98ZM100.75-25.93L100.75-1.29Q100.75-0.56 100.45-0.28 100.14 0 99.41 0L99.41 0 94.21 0Q93.48 0 93.17-0.28 92.87-0.56 92.87-1.29L92.87-1.29 92.87-28.47Q92.87-30.91 93.32-32.34 93.77-33.76 95.08-34.39 96.38-35.01 98.9-35.01L98.9-35.01 105.37-35.01Q118.11-35.01 118.11-25.22L118.11-25.22Q118.11-22.24 117.11-20.34 116.11-18.43 114.62-17.37 113.13-16.31 111.69-15.77L111.69-15.77 111.69-15.65Q113.33-14.58 114.8-12.83 116.28-11.08 117.48-9.05 118.67-7.01 119.5-5.02 120.33-3.03 120.65-1.46L120.65-1.46Q120.8-0.73 120.66-0.37 120.53 0 119.82 0L119.82 0 114.18 0Q113.54 0 113.07-0.27 112.59-0.54 112.2-1.51L112.2-1.51Q110.35-6.18 107.93-9.12 105.51-12.06 103.27-13.84L103.27-13.84Q101.83-14.99 101.83-15.48L101.83-15.48Q101.83-15.87 102.29-16.55L102.29-16.55Q102.58-16.97 103.14-17.55 103.71-18.14 104.12-18.43L104.12-18.43Q104.54-18.73 104.79-18.8 105.05-18.87 105.59-18.87L105.59-18.87Q107.39-18.87 108.6-20.12 109.81-21.36 109.81-24.05L109.81-24.05Q109.81-26.59 108.53-27.77 107.25-28.96 105-28.96L105-28.96 103.54-28.96Q101.92-28.96 101.34-28.27 100.75-27.59 100.75-25.93L100.75-25.93ZM143.64 0L131.51 0Q129 0 127.69-0.63 126.38-1.27 125.93-2.71 125.48-4.15 125.48-6.54L125.48-6.54 125.48-31.1Q125.48-31.81 125.72-32.18L125.72-32.18Q126.82-33.79 128.8-35.57L128.8-35.57Q129.17-35.86 129.44-35.86L129.44-35.86Q129.73-35.86 130.05-35.57L130.05-35.57Q131.12-34.64 131.85-33.8 132.59-32.96 133.12-32.18L133.12-32.18Q133.37-31.79 133.37-31.1L133.37-31.1 133.37-9.45Q133.37-7.81 133.95-7.1 134.54-6.4 136.15-6.4L136.15-6.4 143.64-6.42Q144.23-6.42 144.52-6.23L144.52-6.23Q145.16-5.79 145.84-5.18 146.53-4.57 147.28-3.71L147.28-3.71Q147.53-3.39 147.53-3.2L147.53-3.2Q147.53-2.98 147.28-2.71L147.28-2.71Q146.53-1.86 145.84-1.25 145.16-0.63 144.52-0.2L144.52-0.2Q144.18 0 143.64 0L143.64 0ZM158.83-31.1L158.83-1.29Q158.83-0.56 158.52-0.28 158.22 0 157.49 0L157.49 0 152.28 0Q151.55 0 151.25-0.28 150.94-0.56 150.94-1.29L150.94-1.29 150.94-31.1Q150.94-31.81 151.19-32.18L151.19-32.18Q152.28-33.79 154.26-35.57L154.26-35.57Q154.63-35.86 154.9-35.86L154.9-35.86Q155.19-35.86 155.51-35.57L155.51-35.57Q156.58-34.64 157.31-33.8 158.05-32.96 158.58-32.18L158.58-32.18Q158.83-31.79 158.83-31.1L158.83-31.1ZM181.34-5.98L181.34-5.98Q183.12-5.98 184.13-6.35 185.14-6.71 185.71-7.25 186.27-7.79 186.68-8.33L186.68-8.33Q187.07-8.81 187.33-9.06 187.59-9.3 188.05-9.4L188.05-9.4Q188.44-9.52 189.31-9.56 190.17-9.59 191.04-9.59 191.91-9.59 192.25-9.55L192.25-9.55Q192.76-9.52 192.96-9.35L192.96-9.35Q193.15-9.18 193.2-8.62L193.2-8.62Q193.27-7.84 193.29-6.76 193.3-5.69 193.25-4.91L193.25-4.91Q193.22-4.66 193.16-4.49 193.1-4.32 192.91-3.98L192.91-3.98Q192.66-3.59 191.96-2.84 191.25-2.1 189.88-1.31 188.51-0.51 186.35 0.05 184.19 0.61 181.04 0.61L181.04 0.61Q177.67 0.61 174.74-0.26 171.81-1.12 169.6-3.17 167.39-5.22 166.16-8.72 164.93-12.21 164.93-17.43L164.93-17.43Q164.93-23.24 166.94-27.31 168.96-31.37 172.67-33.5 176.38-35.62 181.46-35.62L181.46-35.62Q185.02-35.62 187.18-34.89 189.34-34.16 190.47-33.17 191.59-32.18 192.05-31.45L192.05-31.45Q192.22-31.18 192.3-30.97 192.37-30.76 192.39-30.32L192.39-30.32Q192.47-29.74 192.43-28.61 192.39-27.49 192.25-26.64L192.25-26.64Q192.15-26.1 191.93-25.93L191.93-25.93Q191.83-25.83 191.59-25.76 191.34-25.68 190.86-25.68L190.86-25.68Q190.08-25.68 189.1-25.74 188.12-25.81 187.63-25.88L187.63-25.88Q187.05-25.98 186.78-26.16 186.51-26.34 186.24-26.73L186.24-26.73Q185.8-27.37 184.73-28.2 183.65-29.03 181.19-29.03L181.19-29.03Q177.72-29.03 175.48-26.35 173.23-23.68 173.23-17.7L173.23-17.7Q173.23-11.74 175.59-8.86 177.94-5.98 181.34-5.98ZM206.55-31.1L206.55-1.29Q206.55-0.56 206.25-0.28 205.94 0 205.21 0L205.21 0 200.01 0Q199.28 0 198.97-0.28 198.67-0.56 198.67-1.29L198.67-1.29 198.67-31.1Q198.67-31.81 198.91-32.18L198.91-32.18Q200.01-33.79 201.99-35.57L201.99-35.57Q202.35-35.86 202.62-35.86L202.62-35.86Q202.91-35.86 203.23-35.57L203.23-35.57Q204.31-34.64 205.04-33.8 205.77-32.96 206.31-32.18L206.31-32.18Q206.55-31.79 206.55-31.1L206.55-31.1ZM229.5-28.59L229.5-1.29Q229.5-0.56 229.19-0.28 228.89 0 228.16 0L228.16 0 222.96 0Q222.22 0 221.92-0.28 221.61-0.56 221.61-1.29L221.61-1.29 221.61-28.59 214.34-28.59Q213.75-28.59 213.46-28.78L213.46-28.78Q212.82-29.22 212.15-29.83 211.48-30.44 210.7-31.3L210.7-31.3Q210.46-31.62 210.46-31.81L210.46-31.81Q210.46-32.03 210.7-32.3L210.7-32.3Q211.48-33.15 212.15-33.76 212.82-34.38 213.46-34.81L213.46-34.81Q213.8-35.01 214.34-35.01L214.34-35.01 236.8-35.01Q237.38-35.01 237.68-34.81L237.68-34.81Q238.31-34.38 239-33.76 239.68-33.15 240.44-32.3L240.44-32.3Q240.68-31.98 240.68-31.79L240.68-31.79Q240.68-31.57 240.44-31.3L240.44-31.3Q239.68-30.44 239-29.83 238.31-29.22 237.68-28.78L237.68-28.78Q237.34-28.59 236.8-28.59L236.8-28.59 229.5-28.59ZM260.16-12.45L260.16-1.29Q260.16-0.56 259.86-0.28 259.55 0 258.82 0L258.82 0 253.62 0Q252.89 0 252.58-0.28 252.27-0.56 252.27-1.29L252.27-1.29 252.27-12.3 247.42-17.94Q245.68-19.97 244.5-21.58 243.31-23.19 242.73-24.91 242.14-26.64 242.14-28.96L242.14-28.96 242.14-31.1Q242.14-31.81 242.39-32.18L242.39-32.18Q243.49-33.79 245.46-35.57L245.46-35.57Q245.83-35.86 246.12-35.86L246.12-35.86Q246.42-35.86 246.73-35.57L246.73-35.57Q247.81-34.64 248.54-33.8 249.27-32.96 249.81-32.18L249.81-32.18Q250.05-31.79 250.05-31.1L250.05-31.1 250.05-28.98Q250.05-27.39 250.98-25.46 251.91-23.54 254.11-21.22L254.11-21.22 256.47-18.73 258.79-21.22Q260.77-23.34 261.81-25.27 262.85-27.2 262.85-28.96L262.85-28.96 262.85-31.1Q262.85-31.81 263.09-32.18L263.09-32.18Q264.14-33.76 266.07-35.57L266.07-35.57Q266.44-35.86 266.68-35.86L266.68-35.86Q266.97-35.86 267.29-35.57L267.29-35.57Q268.31-34.64 269.04-33.8 269.76-32.96 270.27-32.18L270.27-32.18Q270.51-31.79 270.51-31.1L270.51-31.1 270.51-28.96Q270.51-26.27 269.34-23.82 268.17-21.36 265.36-18.24L265.36-18.24 260.16-12.45Z" opacity="1" transform="matrix(1,0,0,1,0,0)" fill="#111111" class="wordmark-text-0" data-fill-palette-color="primary" id="text-0"></path></svg></g></svg></g></svg></g></svg></g><g></g></svg></g></svg></g></svg></g><g mask="url(#a4680879-2f37-4cc8-b704-be391cad12a0)"><g transform="matrix(2.6104823856317005, 0, 0, 2.6104823856317005, 87.77907185214363, 0.9999999999999858)"><svg xmlns="http://www.w3.org/2000/svg" xmlns:xlink="http://www.w3.org/1999/xlink" version="1.1" x="0" y="0" viewBox="7.87 3.285 84.261 93.929" enable-background="new 0 0 100 100" xml:space="preserve" height="93.929" width="84.261" class="icon-none" data-fill-palette-color="accent" id="none"><g fill="#00cd03" data-fill-palette-color="accent"><path fill="#00cd03" d="M66.018 82.742L66.192 82.642A0.8 0.8 0 0 1 66.018 82.522z" data-fill-palette-color="accent"></path><path d="M52.426 46.137L55.604 44.241A0.98 0.98 0 0 0 56.032 43.486V39.34C56.032 39.066 55.839 38.957 55.604 39.097L52.426 40.994A0.98 0.98 0 0 0 51.998 41.749V45.895C51.998 46.168 52.191 46.278 52.426 46.137" fill="#00cd03" data-fill-palette-color="accent"></path><path d="M52.426 55.803L55.604 53.906A0.98 0.98 0 0 0 56.032 53.151V49.005C56.032 48.732 55.839 48.622 55.604 48.763L52.426 50.661A0.98 0.98 0 0 0 51.998 51.414V55.561C51.998 55.834 52.191 55.943 52.426 55.803" fill="#00cd03" data-fill-palette-color="accent"></path><path d="M52.426 65.469L55.604 63.571A0.98 0.98 0 0 0 56.032 62.817V58.672C56.032 58.397 55.839 58.287 55.604 58.428L52.426 60.326A0.98 0.98 0 0 0 51.998 61.079V65.225C51.998 65.499 52.191 65.609 52.426 65.469" fill="#00cd03" data-fill-palette-color="accent"></path><path d="M52.426 75.135L55.604 73.237A0.98 0.98 0 0 0 56.032 72.484V68.337C56.032 68.063 55.839 67.954 55.604 68.095L52.426 69.992A0.98 0.98 0 0 0 51.998 70.746V74.892C51.998 75.165 52.191 75.275 52.426 75.135" fill="#00cd03" data-fill-palette-color="accent"></path><path d="M26.135 72.448L29.31 70.552A0.98 0.98 0 0 0 29.738 69.797V65.651C29.738 65.377 29.545 65.267 29.31 65.408L26.135 67.305A0.98 0.98 0 0 0 25.707 68.059V72.205C25.708 72.481 25.9 72.59 26.135 72.448" fill="#00cd03" data-fill-palette-color="accent"></path><path d="M55.604 82.902A0.98 0.98 0 0 0 56.032 82.147V78.001C56.032 77.727 55.839 77.618 55.604 77.759L52.426 79.655A0.98 0.98 0 0 0 51.998 80.41V84.556C51.998 84.831 52.191 84.939 52.426 84.798z" fill="#00cd03" data-fill-palette-color="accent"></path><path d="M81.783 53.818L78.607 55.715A0.98 0.98 0 0 0 78.179 56.471V60.617C78.179 60.89 78.37 61 78.607 60.858L81.783 58.961A0.98 0.98 0 0 0 82.211 58.207V54.061C82.211 53.787 82.018 53.678 81.783 53.818" fill="#00cd03" data-fill-palette-color="accent"></path><path d="M81.783 63.484L78.607 65.382A0.97 0.97 0 0 0 78.179 66.136V70.282C78.179 70.555 78.37 70.664 78.607 70.524L81.783 68.627C82.017 68.485 82.211 68.147 82.211 67.872V63.726C82.211 63.453 82.018 63.343 81.783 63.484" fill="#00cd03" data-fill-palette-color="accent"></path><path d="M87.037 22.986L55.094 4.543C53.688 3.732 51.881 3.285 50 3.285 48.121 3.285 46.312 3.732 44.907 4.543L12.964 22.986C10.06 24.662 7.87 28.454 7.87 31.808V68.693C7.87 72.045 10.06 75.838 12.964 77.513L44.907 95.956C46.312 96.768 48.12 97.214 50 97.214 51.881 97.214 53.688 96.768 55.094 95.956L87.037 77.513C89.939 75.837 92.131 72.044 92.131 68.693V31.808C92.131 28.454 89.939 24.662 87.037 22.986M33.953 82.725L15.955 72.333C14.893 71.721 13.853 69.918 13.853 68.693V59.3L23.855 53.525A1 1 0 0 1 23.949 53.525L33.953 59.3zM60.035 86.197L52.437 90.583 52.101 90.777C51.607 91.061 50.822 91.232 49.999 91.232 49.177 91.232 48.392 91.061 47.897 90.777L47.562 90.583 39.934 86.18V35.184A1 1 0 0 1 39.981 35.102L47.578 30.716 48.43 28.564 49.389 26.135A2.097 2.097 0 1 1 50.608 26.135L51.569 28.564 52.43 30.74 59.987 35.103A0.5 0.5 0 0 1 60.034 35.185zM86.148 68.693C86.148 69.918 85.107 71.72 84.046 72.333L66.191 82.643 66.017 82.743V49.487L76.021 43.712A0.5 0.5 0 0 1 76.115 43.712L86.148 49.505zM86.148 42.598L79.002 38.472C77.273 37.475 74.861 37.475 73.133 38.472L66.018 42.58V35.065C66.018 33.07 64.811 30.981 63.082 29.982L57.619 26.827A8.1 8.1 0 0 0 58.08 24.129C58.08 19.673 54.455 16.049 50 16.049S41.921 19.673 41.921 24.129C41.921 25.056 42.077 25.959 42.378 26.812L36.888 29.981C35.16 30.98 33.953 33.069 33.953 35.064V52.393L26.837 48.285C25.109 47.287 22.696 47.287 20.968 48.285L13.852 52.393V31.808C13.852 30.582 14.893 28.779 15.954 28.166L47.898 9.724C48.393 9.438 49.178 9.268 50 9.268S51.607 9.438 52.102 9.724L84.047 28.167C85.108 28.78 86.149 30.583 86.149 31.809V42.598z" fill="#00cd03" data-fill-palette-color="accent"></path></g></svg></g></g></svg></g><defs></defs></svg><rect width="395.52" height="247.2" fill="none" stroke="none" visibility="hidden"></rect></g></svg></g></svg>